<?xml version="1.0" encoding="UTF-8"?>
<svg version="1.1" xmlns="http://www.w3.org/2000/svg" width="800" height="800">
<path d="M0 0 C1.80597656 -0.00855011 1.80597656 -0.00855011 3.6484375 -0.01727295 C6.18976989 -0.02666676 8.73111414 -0.03323439 11.27246094 -0.03710938 C15.05947752 -0.04670891 18.84592524 -0.07774347 22.6328125 -0.109375 C44.30331222 -0.20363447 65.80650665 1.4451998 87.125 5.453125 C88.26122803 5.66291992 89.39745605 5.87271484 90.56811523 6.08886719 C144.07267016 16.28021098 196.37464461 36.91313255 241.125 68.203125 C241.99946777 68.80954834 241.99946777 68.80954834 242.89160156 69.42822266 C264.87606934 84.70833621 285.03948555 102.07898166 304 120.953125 C304.70157227 121.65002441 305.40314453 122.34692383 306.12597656 123.06494141 C310.66187923 127.61486375 314.96115532 132.31130168 319.125 137.203125 C319.66914551 137.84056641 320.21329102 138.47800781 320.77392578 139.13476562 C329.7852526 149.76915071 338.16228536 160.76495681 346.125 172.203125 C346.57327148 172.84459473 347.02154297 173.48606445 347.48339844 174.14697266 C364.97112653 199.31950481 378.76658884 226.79302806 390.125 255.203125 C390.46370117 256.04262695 390.80240234 256.88212891 391.15136719 257.74707031 C406.86472224 297.07150641 416.07132479 341.32406198 416.36328125 383.734375 C416.37797203 385.50044098 416.37797203 385.50044098 416.39295959 387.30218506 C416.56388127 413.19336279 416.45861543 438.63381126 412.125 464.203125 C412.01609436 464.85099976 411.90718872 465.49887451 411.79498291 466.16638184 C408.74789346 484.1584556 404.47967094 501.76321787 399.125 519.203125 C398.85075195 520.10289062 398.57650391 521.00265625 398.29394531 521.9296875 C387.02554351 558.44092488 370.02627862 593.88033055 348.125 625.203125 C347.51857666 626.07759277 347.51857666 626.07759277 346.89990234 626.96972656 C331.61978879 648.95419434 314.24914334 669.11761055 295.375 688.078125 C294.67810059 688.77969727 293.98120117 689.48126953 293.26318359 690.20410156 C288.71326125 694.74000423 284.01682332 699.03928032 279.125 703.203125 C278.48755859 703.74727051 277.85011719 704.29141602 277.19335938 704.85205078 C266.55897429 713.8633776 255.56316819 722.24041036 244.125 730.203125 C243.48353027 730.65139648 242.84206055 731.09966797 242.18115234 731.56152344 C217.00862019 749.04925153 189.53509694 762.84471384 161.125 774.203125 C160.28549805 774.54182617 159.44599609 774.88052734 158.58105469 775.22949219 C119.08524168 791.01132644 74.80639376 800.24461047 32.25 800.40625 C31.04601562 800.41195007 29.84203125 800.41765015 28.6015625 800.42352295 C26.06023011 800.43291676 23.51888586 800.43948439 20.97753906 800.44335938 C17.19052248 800.45295891 13.40407476 800.48399347 9.6171875 800.515625 C-12.05331222 800.60988447 -33.55650665 798.9610502 -54.875 794.953125 C-56.01122803 794.74333008 -57.14745605 794.53353516 -58.31811523 794.31738281 C-111.82267016 784.12603902 -164.12464461 763.49311745 -208.875 732.203125 C-209.45797852 731.79884277 -210.04095703 731.39456055 -210.64160156 730.97802734 C-232.62606934 715.69791379 -252.78948555 698.32726834 -271.75 679.453125 C-272.45157227 678.75622559 -273.15314453 678.05932617 -273.87597656 677.34130859 C-278.41187923 672.79138625 -282.71115532 668.09494832 -286.875 663.203125 C-287.41914551 662.56568359 -287.96329102 661.92824219 -288.52392578 661.27148438 C-297.5352526 650.63709929 -305.91228536 639.64129319 -313.875 628.203125 C-314.32327148 627.56165527 -314.77154297 626.92018555 -315.23339844 626.25927734 C-332.72112653 601.08674519 -346.51658884 573.61322194 -357.875 545.203125 C-358.38305176 543.94387207 -358.38305176 543.94387207 -358.90136719 542.65917969 C-374.61472224 503.33474359 -383.82132479 459.08218802 -384.11328125 416.671875 C-384.1230751 415.49449768 -384.13286896 414.31712036 -384.14295959 413.10406494 C-384.31388127 387.21288721 -384.20861543 361.77243874 -379.875 336.203125 C-379.76609436 335.55525024 -379.65718872 334.90737549 -379.54498291 334.23986816 C-376.49789346 316.2477944 -372.22967094 298.64303213 -366.875 281.203125 C-366.60075195 280.30335938 -366.32650391 279.40359375 -366.04394531 278.4765625 C-354.77554351 241.96532512 -337.77627862 206.52591945 -315.875 175.203125 C-315.47071777 174.62014648 -315.06643555 174.03716797 -314.64990234 173.43652344 C-299.36978879 151.45205566 -281.99914334 131.28863945 -263.125 112.328125 C-262.42810059 111.62655273 -261.73120117 110.92498047 -261.01318359 110.20214844 C-256.46326125 105.66624577 -251.76682332 101.36696968 -246.875 97.203125 C-246.23755859 96.65897949 -245.60011719 96.11483398 -244.94335938 95.55419922 C-234.30897429 86.5428724 -223.31316819 78.16583964 -211.875 70.203125 C-211.23353027 69.75485352 -210.59206055 69.30658203 -209.93115234 68.84472656 C-184.75862019 51.35699847 -157.28509694 37.56153616 -128.875 26.203125 C-128.03549805 25.86442383 -127.19599609 25.52572266 -126.33105469 25.17675781 C-86.83524168 9.39492356 -42.55639376 0.16163953 0 0 Z " fill="#2A7635" transform="translate(383.875,-0.203125)"/>
<path d="M0 0 C4.43692311 3.41400136 7.65064113 6.84978042 10.625 11.625 C11.20411133 12.54043579 11.20411133 12.54043579 11.79492188 13.47436523 C20.07534198 26.95816478 22.21741738 42.56349426 18.94921875 58.046875 C16.24434913 66.46202493 12.27934069 75.07008154 6 81.375 C3.66366785 83.80905114 3.66366785 83.80905114 2.65869141 86.94824219 C2.91307506 95.28250948 3.62891545 103.57311568 4.375 111.875 C4.51236584 113.43788581 4.64949016 115.00079286 4.78637695 116.5637207 C5.76936172 127.717949 6.82418446 138.86433519 8 150 C8.40089844 149.17757812 8.80179688 148.35515625 9.21484375 147.5078125 C17.90522303 130.44235114 30.19055527 119.77652788 48.234375 113.18359375 C58.56491352 110.32067319 71.22746556 110.73562133 81 115 C79.98720588 126.9003309 73.04429352 137.43809594 65 146 C52.30105963 156.38074454 39.75865433 161.19288807 23.375 161.125 C22.43398438 161.12886719 21.49296875 161.13273438 20.5234375 161.13671875 C19.6159375 161.13542969 18.7084375 161.13414062 17.7734375 161.1328125 C16.95278809 161.13168457 16.13213867 161.13055664 15.28662109 161.12939453 C13.06485631 161.00367007 11.1328994 160.61630694 9 160 C8.83278317 177.52480834 8.83278317 177.52480834 10 195 C10.40089844 194.23816406 10.80179688 193.47632813 11.21484375 192.69140625 C19.38231941 177.85660352 30.92690525 168.40294908 47 163 C48.8253125 162.38125 48.8253125 162.38125 50.6875 161.75 C60.00030062 159.63001287 72.30350174 159.65175087 81 164 C79.81475683 177.6302965 72.09065229 189.3846332 61.7421875 198.0859375 C48.17640063 207.55493403 33.62232538 212.39729154 17 211 C14.6126776 210.44493014 12.33684166 209.75198366 10 209 C10.1388658 213.41691473 10.28729272 217.83345756 10.4375 222.25 C10.47681641 223.50425781 10.51613281 224.75851562 10.55664062 226.05078125 C10.59853516 227.25605469 10.64042969 228.46132813 10.68359375 229.703125 C10.72025146 230.81333008 10.75690918 231.92353516 10.79467773 233.06738281 C10.96710904 235.53021849 11.29595439 237.64482965 12 240 C12.52207031 239.23816406 13.04414062 238.47632813 13.58203125 237.69140625 C23.32967743 224.0173877 35.95179692 213.8629282 53 211 C56.52637157 210.73496061 60.02762213 210.71972267 63.5625 210.75 C64.46935547 210.74226562 65.37621094 210.73453125 66.31054688 210.7265625 C71.5968935 210.74189636 75.99915937 211.27131435 81 213 C81.46830648 218.4834431 80.00850386 222.00060482 77.5625 226.75 C77.20341553 227.45374756 76.84433105 228.15749512 76.47436523 228.88256836 C69.29294402 242.40646696 58.12100102 251.46910577 44 257 C42.88431641 257.48146484 42.88431641 257.48146484 41.74609375 257.97265625 C33.29714573 261.13182812 20.62986806 261.87662269 12 259 C12.495 273.355 12.495 273.355 13 288 C14.98 285.36 16.96 282.72 19 280 C28.12822122 269.28353516 40.88508114 261.05876917 55.18457031 259.80908203 C63.64149179 259.38072598 71.8362755 259.58111867 80 262 C82.08564791 269.0989755 78.03224464 275.26018885 74.6796875 281.4296875 C65.4020178 296.32697427 52.34981691 304.24697096 35.71484375 308.59765625 C31.76531124 309.18298265 27.86175586 309.14419786 23.875 309.125 C23.06417969 309.12886719 22.25335937 309.13273437 21.41796875 309.13671875 C20.63808594 309.13542969 19.85820313 309.13414062 19.0546875 309.1328125 C17.99483643 309.13112061 17.99483643 309.13112061 16.91357422 309.12939453 C15 309 15 309 12 308 C12 317.9 12 327.8 12 338 C12.66 338 13.32 338 14 338 C14.185625 337.34 14.37125 336.68 14.5625 336 C16.64847392 331.64666313 19.67822581 328.46590075 23 325 C23.47953125 324.48308594 23.9590625 323.96617187 24.453125 323.43359375 C28.41007535 319.61201275 33.07527948 317.22154047 37.9375 314.75 C38.93994751 314.23759766 38.93994751 314.23759766 39.96264648 313.71484375 C52.16985347 307.7370187 65.98542185 307.18538227 79 311 C79.66 311.33 80.32 311.66 81 312 C79.79733932 325.83059781 72.05494769 336.96079281 61.6875 345.875 C47.29664203 356.94952897 32.72583454 359.33690855 15 358 C14.01 357.67 13.02 357.34 12 357 C12.03330917 358.17271706 12.03330917 358.17271706 12.06729126 359.36912537 C12.26838447 366.7683149 12.42026087 374.16616473 12.51812172 381.56738186 C12.57012916 385.3718799 12.64054807 389.17410514 12.75439453 392.97729492 C12.86375221 396.65390566 12.92297965 400.32834391 12.94877243 404.00645638 C12.96712919 405.40328227 13.00298129 406.8000004 13.05730057 408.19589043 C13.46409471 419.09162585 13.46409471 419.09162585 9.84028625 423.81507874 C7.32869686 426.09900469 4.78936325 428.07049992 2 430 C0.73168598 431.01394012 -0.53173838 432.0341085 -1.78515625 433.06640625 C-2.87431072 433.90274409 -3.96664398 434.73496267 -5.0625 435.5625 C-5.62904297 435.99884766 -6.19558594 436.43519531 -6.77929688 436.88476562 C-10.86284586 440 -10.86284586 440 -12 440 C-12 412.94 -12 385.88 -12 358 C-19.59 358 -27.18 358 -35 358 C-50.49532815 353.87624331 -63.93186384 345.75209385 -72.31982422 331.77905273 C-80.4997217 317.50303082 -80.4997217 317.50303082 -79.55859375 312.7890625 C-79.28208984 311.90347656 -79.28208984 311.90347656 -79 311 C-64.46684414 306.25447972 -48.29512265 308.93906701 -34.625 315.25 C-25.2856318 320.39842482 -19.60786682 326.50417124 -13 335 C-12.67 326.42 -12.34 317.84 -12 309 C-15.3825 309.0825 -18.765 309.165 -22.25 309.25 C-30.86451173 309.31934477 -38.12990547 308.81040776 -46 305 C-46.92683594 304.57589844 -47.85367188 304.15179687 -48.80859375 303.71484375 C-64.69130967 295.80652889 -74.3401853 282.46114604 -80 266 C-80 264.68 -80 263.36 -80 262 C-74.2154889 260.34540659 -69.06719028 259.67514929 -63.0625 259.75 C-62.26763184 259.75749268 -61.47276367 259.76498535 -60.65380859 259.77270508 C-55.2090773 259.87282907 -50.1722056 260.17786518 -45 262 C-44.06027344 262.33 -43.12054687 262.66 -42.15234375 263 C-29.22644616 267.96772803 -19.64793969 275.52809047 -12 287 C-11.67 277.76 -11.34 268.52 -11 259 C-11.99 259.33 -12.98 259.66 -14 260 C-30.60161479 261.23760707 -45.6525649 258.67392777 -59 248 C-69.28469463 239.0008922 -76.25099874 229.2538221 -80 216 C-80 215.01 -80 214.02 -80 213 C-68.81719318 208.26954026 -52.07146339 209.43690019 -40.83984375 213.6875 C-27.91315436 219.66187089 -18.92647092 227.11029362 -11 239 C-10.34 229.1 -9.68 219.2 -9 209 C-12.96 209.99 -12.96 209.99 -17 211 C-32.06697099 212.70400267 -46.83739382 207.88008463 -59 199 C-69.80713706 189.88147811 -77.48958427 178.04341473 -80 164 C-68.35559137 159.29745036 -54.65394459 159.32904902 -43 164 C-27.6567531 170.52946608 -16.63158444 178.73683111 -9 194 C-8.34 182.78 -7.68 171.56 -7 160 C-8.98 160.33 -10.96 160.66 -13 161 C-30.42192528 162.3344845 -45.74943201 159.67421841 -59.8828125 148.77734375 C-69.42446507 140.57464243 -76.51823067 130.20432688 -80 118 C-79.625 115.65234375 -79.625 115.65234375 -79 114 C-62.77245023 109.52343455 -46.54666292 111.5756022 -31.90625 119.609375 C-20.68628102 126.20741938 -11.16958512 136.49124463 -7 149 C-6.22427263 146.18905603 -5.81370999 143.54520559 -5.62695312 140.63720703 C-5.57019409 139.781763 -5.51343506 138.92631897 -5.45495605 138.04495239 C-5.39763306 137.12519623 -5.34031006 136.20544006 -5.28125 135.2578125 C-5.18704773 133.8178743 -5.18704773 133.8178743 -5.09094238 132.34884644 C-4.8905224 129.27444256 -4.69512244 126.1997442 -4.5 123.125 C-4.30425906 120.09367364 -4.10750179 117.06241693 -3.90977478 114.03121948 C-3.78305153 112.0669939 -3.65929305 110.10257466 -3.53858948 108.13796997 C-3.27855036 103.95362878 -2.99914464 99.78235106 -2.55834961 95.61279297 C-2.43468018 94.37932129 -2.31101074 93.14584961 -2.18359375 91.875 C-2.00268188 90.328125 -2.00268188 90.328125 -1.81811523 88.75 C-2.11855567 84.20750192 -4.77468411 81.71110583 -7.79296875 78.5078125 C-17.96026545 66.95488422 -19.81336142 51.73258424 -19 37 C-17.19763474 21.91965946 -10.6079027 10.6560111 0 0 Z " fill="#FBFCFB" transform="translate(641,265)"/>
<path d="M0 0 C2.15508359 3.23262539 3.565592 6.5645096 5.0625 10.125 C13.6015599 29.91393246 25.07453001 46.74563707 37.86450195 63.99243164 C60.16029498 94.16347102 77.41101349 126.36145069 74 165 C70.77500235 183.3066043 58.26847425 198.16349807 43.5390625 208.75390625 C24.90202131 221 24.90202131 221 19 221 C19.4079083 225.39259296 19.81688705 229.78508462 20.22680664 234.17749023 C20.36576421 235.66802352 20.50444235 237.15858289 20.64282227 238.64916992 C21.36628831 246.44014178 22.0974151 254.22725432 23 262 C20.36 262 17.72 262 15 262 C13.35 248.8 11.7 235.6 10 222 C2.575 220.02 2.575 220.02 -5 218 C-9.05995197 216.39064967 -13.0358801 214.80120159 -17 213 C-17.39445312 214.30324219 -17.39445312 214.30324219 -17.796875 215.6328125 C-18.99588353 218.98847924 -20.44417486 221.808351 -22.25 224.875 C-22.81203125 225.84179688 -23.3740625 226.80859375 -23.953125 227.8046875 C-26.44326969 231.69197444 -29.18649602 235.34291026 -32 239 C-29.9210805 242.23202805 -27.83608754 245.46009475 -25.75 248.6875 C-25.16347656 249.59951172 -24.57695312 250.51152344 -23.97265625 251.45117188 C-21.62110777 255.08418217 -19.32273735 258.60594811 -16.578125 261.95703125 C-15 264 -15 264 -15 267 C-16.65 267.33 -18.3 267.66 -20 268 C-24.57928407 262.37357589 -28.80651354 256.52169326 -32.9375 250.5625 C-33.68253784 249.49708984 -33.68253784 249.49708984 -34.44262695 248.41015625 C-34.9037085 247.73984375 -35.36479004 247.06953125 -35.83984375 246.37890625 C-36.25613037 245.7763501 -36.67241699 245.17379395 -37.10131836 244.55297852 C-38 243 -38 243 -38 241 C-39.06541016 241.46019531 -39.06541016 241.46019531 -40.15234375 241.9296875 C-56.86708687 248.21204637 -77.54744167 246.2869495 -93.79296875 239.90234375 C-108.21366959 233.30682941 -118.39633336 221.66967618 -123.96704102 206.91308594 C-124.66978263 204.94966695 -125.34126974 202.97860017 -126 201 C-126.22671387 200.32807617 -126.45342773 199.65615234 -126.68701172 198.96386719 C-138.65056044 162.84266012 -138.71576506 119.65806392 -129 83 C-125.85678714 84.39467061 -123.7647598 86.04493009 -121.3125 88.4375 C-107.82785282 100.53242508 -91.18698315 108.24681932 -75.16503906 116.36962891 C-70.395673 118.82641898 -65.69269576 121.40034316 -61 124 C-60.87830444 122.85857544 -60.87830444 122.85857544 -60.75415039 121.6940918 C-56.05673547 80.80086755 -29.76525251 28.56957317 0 0 Z " fill="#FCFCFC" transform="translate(470,504)"/>
<path d="M0 0 C0.33 0 0.66 0 1 0 C0.99111755 0.60466095 0.98223511 1.2093219 0.9730835 1.83230591 C0.54423618 32.48844541 0.52027202 62.63341534 5 93 C5.19656189 94.35046417 5.19656189 94.35046417 5.39709473 95.72821045 C8.98017041 120.24827619 13.35571758 144.59667144 18.3125 168.875 C18.52505432 169.91661285 18.73760864 170.95822571 18.956604 172.03140259 C21.79771975 186.11187891 21.79771975 186.11187891 25.50854492 199.98095703 C26 202 26 202 26 206 C31.08256997 205.75900606 36.16469523 205.51036597 41.24658203 205.25537109 C42.96653717 205.1700603 44.68658795 205.0866511 46.40673828 205.00537109 C61.64191697 204.28328246 76.93740571 203.39176962 91.875 200.125 C93.55977487 199.77025835 95.24467456 199.41610907 96.9296875 199.0625 C97.76725586 198.88460937 98.60482422 198.70671875 99.46777344 198.5234375 C101.97617535 198.0049248 104.48891202 197.52710376 107.0078125 197.0625 C118.96649258 194.83839153 130.42925638 191.73293537 142 188 C143.07975098 187.65727051 144.15950195 187.31454102 145.27197266 186.96142578 C160.16714899 182.21817613 174.83496778 177.05212409 189.375 171.3125 C190.04461761 171.04863495 190.71423523 170.7847699 191.40414429 170.51290894 C197.46923461 168.1146824 203.51061977 165.68347133 209.46191406 163.01318359 C210.19568268 162.68489059 210.92945129 162.3565976 211.68545532 162.01835632 C213.10385285 161.37965879 214.51903737 160.73376572 215.93051147 160.07991028 C217.59529337 159.32844861 219.29552455 158.65647304 221 158 C221.66 158.33 222.32 158.66 223 159 C202.61553511 172.16401159 181.66177715 184.06501916 160 195 C158.4833374 195.76642822 158.4833374 195.76642822 156.93603516 196.54833984 C138.11870412 205.98808637 118.89377674 213.33589038 98.984375 220.08447266 C70.03832383 229.89316783 70.03832383 229.89316783 43 244 C42.35853027 244.32178223 41.71706055 244.64356445 41.05615234 244.97509766 C38.67791085 246.45375652 37.47115114 247.5971198 36 250 C34.9772039 255.66698943 35.20740544 261.26278411 35.375 267 C35.4023421 268.77471293 35.42783809 270.54945508 35.45166016 272.32421875 C36.03995397 306.65289319 37.85326788 341.10789226 40.77191162 375.31018066 C41.04027811 378.47499501 41.29408053 381.64083625 41.54621887 384.80697632 C46.78168733 452.77672225 46.78168733 452.77672225 62 519 C62.24089355 519.77424316 62.48178711 520.54848633 62.72998047 521.34619141 C66.0617867 531.99450539 69.75225987 542.30182873 74.51074219 552.40332031 C77 557.71982238 77 557.71982238 77 561 C72.65315826 559.70953136 68.32519785 558.36087062 64 557 C63.15775879 556.73687012 62.31551758 556.47374023 61.44775391 556.20263672 C33.10296761 547.27955862 5.32939299 535.64886712 -20 520 C-19.35657081 514.63337635 -18.14609074 509.63431148 -16.6875 504.4375 C-11.9177973 486.56533608 -9.52489429 468.76731004 -7.8125 450.375 C-7.72773407 449.46919189 -7.64296814 448.56338379 -7.55563354 447.63012695 C-5.48025114 425.15998936 -4.82508157 402.85568338 -4.87082291 380.29204178 C-4.87505972 378.15741264 -4.87798794 376.02278464 -4.88070679 373.88815308 C-4.93704343 334.79686664 -6.39026999 296.00846673 -9 257 C-10.15218018 256.46934937 -10.15218018 256.46934937 -11.32763672 255.92797852 C-29.58664004 247.49000502 -47.70375034 238.77503916 -65.71490479 229.8197937 C-67.87802287 228.74498649 -70.04250162 227.67291269 -72.20843506 226.60379028 C-88.96748992 218.32296585 -105.0741009 209.36434514 -120.4375 198.6875 C-121.21134033 198.15318359 -121.98518066 197.61886719 -122.7824707 197.06835938 C-136.73248835 187.37721247 -150.22643027 177.19947624 -163.31933594 166.38085938 C-165.5868871 164.51780455 -167.88581347 162.69562664 -170.1875 160.875 C-178.63793191 154.13749348 -186.80883331 147.0482132 -195 140 C-194.34 139.67 -193.68 139.34 -193 139 C-191.19775391 139.75 -191.19775391 139.75 -188.9765625 141 C-187.71561768 141.70020264 -187.71561768 141.70020264 -186.42919922 142.41455078 C-185.50381348 142.93774902 -184.57842773 143.46094727 -183.625 144 C-181.59949027 145.1233555 -179.57342292 146.24570599 -177.546875 147.3671875 C-176.47373047 147.96370117 -175.40058594 148.56021484 -174.29492188 149.17480469 C-109.81023532 185.404201 -109.81023532 185.404201 -38.77880859 203.67626953 C-35.63732335 204.04225173 -32.50055661 204.4394076 -29.36328125 204.83984375 C-23.57751676 205.5765952 -17.78967876 206.29471598 -12 207 C-12.06058594 205.94167969 -12.12117187 204.88335937 -12.18359375 203.79296875 C-14.82067717 156.5484595 -16.81969064 108.07303664 -11 61 C-10.7831958 59.16622803 -10.7831958 59.16622803 -10.56201172 57.29541016 C-8.23917262 38.06189087 -4.81501775 18.77940758 0 0 Z " fill="#FCFCFC" transform="translate(226,209)"/>
<path d="M0 0 C1.32837891 0.00845947 1.32837891 0.00845947 2.68359375 0.01708984 C18.86332608 0.31572891 32.15270541 6.11453201 43.6171875 17.45703125 C50.34137876 24.58077591 55.71898999 32.7624397 58.3125 42.3125 C57.9375 45.16796875 57.9375 45.16796875 57.3125 47.3125 C41.27170184 51.72667542 25.63438275 50.09265481 11.0625 42.0625 C-2.62877825 33.51669558 -12.66919684 21.1890125 -16.6875 5.3125 C-16.6875 4.3225 -16.6875 3.3325 -16.6875 2.3125 C-11.0262856 0.39486867 -5.95924603 -0.03962265 0 0 Z " fill="#FBFCFB" transform="translate(577.6875,327.6875)"/>
<path d="M0 0 C-2.19431524 12.36795864 -7.55072351 22.1196039 -17.50390625 29.9765625 C-28.68661065 37.62702985 -40.53202401 40.43888632 -54 39 C-60.69584596 37.4949704 -66.57230594 35.22153983 -72 31 C-69.93635141 18.41174358 -63.83050838 9.08569954 -54 1 C-36.91550135 -10.55214317 -17.50387471 -11.18303107 0 0 Z " fill="#FBFCFB" transform="translate(528,229)"/>
<path d="M0 0 C0.99237537 14.51073323 -2.36140452 26.79513275 -12 38 C-20.07568545 46.58041579 -31.46856053 52.34843422 -43.2734375 53.25 C-49.3239389 53.36076433 -54.25808682 52.81285561 -60 51 C-60.73250905 34.78306364 -57.63733382 23.1594493 -46.4375 10.875 C-33.75936597 -1.29211519 -16.66591179 -5.22852135 0 0 Z " fill="#FBFCFB" transform="translate(129,451)"/>
<path d="M0 0 C0.928125 0.680625 1.85625 1.36125 2.8125 2.0625 C3.8025 2.784375 4.7925 3.50625 5.8125 4.25 C9.57429562 7.47297078 12.81499876 11.52343103 14.8125 16.0625 C14.70466899 19.27292314 14.24721823 20.60495193 12.02734375 22.94140625 C7.15253438 26.54525331 2.37484695 29.63663063 -3.1875 32.0625 C-4.486875 32.6503125 -4.486875 32.6503125 -5.8125 33.25 C-17.04725974 37.09347044 -29.53659374 35.94717614 -40.1875 31.0625 C-49.28105495 26.35093999 -57.76115868 19.54324459 -62.1875 10.0625 C-60.7475021 4.54250804 -54.66501479 1.06338757 -50.1875 -1.9375 C-33.18293996 -10.43978002 -16.28504378 -9.8987521 0 0 Z " fill="#FBFCFB" transform="translate(526.1875,369.9375)"/>
<path d="M0 0 C0.8350708 0.00386719 1.6701416 0.00773437 2.53051758 0.01171875 C8.46787424 0.09492842 13.926056 0.73880157 19.6875 2.25 C19.45851832 13.69908398 12.76500003 24.0692145 5 32.0703125 C-1.83704231 38.51468684 -8.59705709 42.72420719 -17.3125 46.25 C-18.17359375 46.61222656 -19.0346875 46.97445312 -19.921875 47.34765625 C-30.5002212 51.34046339 -43.57590908 49.659816 -54.3125 47.25 C-56.16267765 41.69946704 -52.70183143 36.32458924 -50.3125 31.25 C-41.71353366 16.1502151 -29.24097611 6.80142843 -12.97265625 1.07421875 C-8.56938487 0.08266031 -4.49649388 -0.0502552 0 0 Z " fill="#FCFCFC" transform="translate(702.3125,327.75)"/>
<path d="M0 0 C1.7308193 1.19729613 3.441662 2.42431883 5.125 3.6875 C5.77082031 4.16445313 6.41664062 4.64140625 7.08203125 5.1328125 C13.90692195 11.01793269 19.27892053 21.95886329 21.125 30.6875 C21.19048492 32.26961573 21.21078381 33.85420081 21.1875 35.4375 C21.17847656 36.23671875 21.16945313 37.0359375 21.16015625 37.859375 C21.14855469 38.46265625 21.13695312 39.0659375 21.125 39.6875 C10.43309881 44.7616226 -0.90176915 45.49879836 -12.25 42.125 C-25.16133672 37.13891468 -34.93154434 27.98947721 -40.6875 15.5078125 C-43.42126662 9.01511677 -44.15880083 3.64062031 -43.875 -3.3125 C-28.97334826 -9.90361519 -14.02446371 -8.49503668 0 0 Z " fill="#FBFCFB" transform="translate(107.875,283.3125)"/>
<path d="M0 0 C5.82996305 7.55690588 7.31928404 15.87271977 7.359375 25.16015625 C7.36549805 25.9394751 7.37162109 26.71879395 7.37792969 27.52172852 C7.08484315 41.11720832 0.4591536 52.18198198 -9.140625 61.41015625 C-14.5484296 65.83472365 -21.22977853 69.97785646 -28.140625 71.41015625 C-30.90530707 70.59850647 -31.90751229 69.74501429 -33.5546875 67.37890625 C-39.3100675 55.64535734 -41.09894235 43.60117488 -37.578125 30.84765625 C-33.0744879 17.68317857 -25.22547765 8.35953701 -12.890625 1.97265625 C-3.48906292 -2.59132958 -3.48906292 -2.59132958 0 0 Z " fill="#FBFCFB" transform="translate(345.140625,75.58984375)"/>
<path d="M0 0 C3.69531478 2.33858085 6.67339576 4.78818186 9.5625 8.0625 C6.51481425 18.56177741 -1.10539929 25.76209235 -10.4375 31.0625 C-21.78756942 36.55338904 -34.54953689 38.2023036 -46.75 34.4375 C-54.70036606 31.44155647 -61.08635287 26.5993975 -67.4375 21.0625 C-63.94951595 9.04639494 -54.70916498 2.19736832 -44.25 -3.75 C-29.32663312 -10.05097713 -13.80120721 -7.85451057 0 0 Z " fill="#FBFCFB" transform="translate(535.4375,298.9375)"/>
<path d="M0 0 C0.94694806 13.3624893 -3.62502389 24.32146271 -11.1875 35.125 C-14.84056499 39.22051696 -19.33975996 42.16562487 -24 45 C-24.83917969 45.51304687 -25.67835938 46.02609375 -26.54296875 46.5546875 C-35.90298847 51.33599628 -47.69219604 51.38326497 -58 50 C-60.29882812 48.97680664 -60.29882812 48.97680664 -62 48 C-62.73907815 33.84802207 -58.9972005 22.73681091 -49.9375 11.875 C-36.97024451 -1.97540744 -17.75028259 -7.34494452 0 0 Z " fill="#FBFCFB" transform="translate(378,212)"/>
<path d="M0 0 C3.79081035 9.15859781 3.93681945 23.41192851 0.375 32.6875 C-0.37242407 34.14849269 -1.16487175 35.58730642 -2 37 C-2.42410156 37.83402344 -2.84820312 38.66804688 -3.28515625 39.52734375 C-9.47892738 51.00048526 -19.18213709 57.22020785 -31 62 C-34.84006986 62.85442768 -38.44870919 63.11555798 -42.375 63.0625 C-43.68597656 63.04896484 -43.68597656 63.04896484 -45.0234375 63.03515625 C-45.67570312 63.02355469 -46.32796875 63.01195312 -47 63 C-51.11275777 53.67774904 -51.68706933 41.97788569 -48.4375 32.3125 C-42.15627257 17.37811311 -32.81431193 8.33410805 -18 2 C-11.9896686 -0.31977703 -6.35294814 -0.20678674 0 0 Z " fill="#FBFCFB" transform="translate(437,98)"/>
<path d="M0 0 C9.74059761 7.63414036 15.88303781 17.82294398 18 30 C18.19394623 32.728177 18.15498705 35.26189537 18 38 C7.48029198 42.83906569 -4.45632686 43.90973808 -15.53515625 40.03125 C-28.52796816 34.59527164 -38.6915171 26.34602802 -44.1875 13.1484375 C-46.4589654 6.9176817 -47.74805214 1.62560466 -47 -5 C-32.42641192 -14.71572539 -13.55878621 -8.13837798 0 0 Z " fill="#FBFCFB" transform="translate(381,446)"/>
<path d="M0 0 C1.06238892 -0.00833862 1.06238892 -0.00833862 2.14624023 -0.0168457 C14.19552657 0.14645402 25.8195285 4.98824448 34.625 13.26171875 C40.66699232 20.09802472 46.70732249 28.94807238 46.4375 38.3125 C33.51892282 45.1593459 22.55662076 48.75224451 7.8125 45.1875 C-4.49150586 41.32461444 -14.50369472 34.49495858 -20.62597656 22.97851562 C-23.09080308 18.10026669 -24.90048683 13.76583348 -25.5625 8.3125 C-17.15877177 2.51919416 -10.19146227 0.06723037 0 0 Z " fill="#FBFCFB" transform="translate(430.5625,394.6875)"/>
<path d="M0 0 C10.93638373 7.17313698 18.92838154 18.25970063 21.6875 31.25 C21.75298492 32.83211573 21.77328381 34.41670081 21.75 36 C21.74097656 36.79921875 21.73195313 37.5984375 21.72265625 38.421875 C21.71105469 39.02515625 21.69945312 39.6284375 21.6875 40.25 C11.16995547 45.08807049 -0.77672957 46.16607958 -11.8515625 42.27734375 C-24.93591068 36.81514761 -34.27968965 29.10126643 -40.1953125 16 C-42.63276401 10.00011935 -44.5486701 3.77644643 -43.3125 -2.75 C-30.50984522 -11.28510319 -12.51973657 -6.98509693 0 0 Z " fill="#FBFCFB" transform="translate(170.3125,354.75)"/>
<path d="M0 0 C1.15082685 2.24756784 2.29576858 4.49781748 3.4375 6.75 C3.76298828 7.38421875 4.08847656 8.0184375 4.42382812 8.671875 C9.15018734 18.02714273 9.57814994 29.60421884 6.80859375 39.765625 C2.35163014 52.08148581 -4.94229817 63.13795524 -17 69 C-25.8370565 73.04073587 -25.8370565 73.04073587 -30 72 C-37.78661346 62.83927829 -38.90155915 50.55283654 -38 39 C-35.46914684 25.9340894 -28.95618072 14.70803498 -18 7 C-5.72707424 0 -5.72707424 0 0 0 Z " fill="#FBFCFB" transform="translate(281,227)"/>
<path d="M0 0 C7.66896979 1.39275543 14.56511284 7.76841863 19.3984375 13.62109375 C27.70673499 25.96195515 29.78108755 39.46821279 27.5390625 53.984375 C25.07259393 63.09580009 19.94329285 70.71797314 13 77 C2.56970419 74.1195404 -4.76042959 65.04723293 -10.1796875 56.0390625 C-15.60903531 46.01260267 -16.83576553 33.89465395 -13.875 22.875 C-10.85772099 14.16313806 -6.26767027 6.71536101 0 0 Z " fill="#FBFCFB" transform="translate(177,187)"/>
<path d="M0 0 C0.72131104 -0.00563965 1.44262207 -0.0112793 2.18579102 -0.01708984 C6.56817516 0.04271371 10.17704313 0.70509092 14.25 2.3125 C15.08544019 15.73523904 13.13538862 26.73847624 4.1171875 37.32421875 C-3.54984843 45.48848922 -13.23199797 52.83676663 -24.84057617 53.41699219 C-27.31142816 53.48294245 -29.77830137 53.49810743 -32.25 53.5 C-33.09175781 53.51224609 -33.93351562 53.52449219 -34.80078125 53.53710938 C-39.23467541 53.54758314 -42.71928554 53.40219418 -46.75 51.3125 C-47.59693357 38.75906243 -45.5170383 27.96189144 -37.3359375 18.078125 C-36.55089844 17.20414062 -36.55089844 17.20414062 -35.75 16.3125 C-35.22664063 15.70921875 -34.70328125 15.1059375 -34.1640625 14.484375 C-24.81834005 4.39274981 -13.50005719 0.10112402 0 0 Z " fill="#FBFCFB" transform="translate(352.75,276.6875)"/>
<path d="M0 0 C1.06927734 -0.0009668 1.06927734 -0.0009668 2.16015625 -0.00195312 C7.19542014 0.04867567 11.4905038 0.60100127 16.25 2.1875 C16.68807174 16.78989135 13.66098868 29.34861515 3.30078125 40.375 C-6.99760934 49.47681569 -17.76865751 53.36317132 -31.3125 53.375 C-32.05435547 53.38724609 -32.79621094 53.39949219 -33.56054688 53.41210938 C-37.75221335 53.42330706 -40.91978477 53.10639991 -44.75 51.1875 C-45.61891722 37.22689663 -43.36068093 26.30136006 -33.91015625 15.40234375 C-24.53073211 5.78546583 -13.50262339 -0.01247932 0 0 Z " fill="#FBFCFB" transform="translate(420.75,225.8125)"/>
<path d="M0 0 C0.967407 1.68231469 1.92347446 3.37115197 2.875 5.0625 C3.40867187 6.00222656 3.94234375 6.94195312 4.4921875 7.91015625 C9.10239169 17.35749177 9.60056413 28.52904973 7.08984375 38.6796875 C2.3759931 51.56320213 -5.5655106 62.71392971 -18 69 C-25.25250377 72.08769962 -25.25250377 72.08769962 -29.1015625 71.89453125 C-31.95411826 70.55042576 -32.42824621 68.67312761 -33.625 65.8125 C-34.02976562 64.87019531 -34.43453125 63.92789063 -34.8515625 62.95703125 C-39.38822014 51.27590937 -39.62580334 38.60991368 -34.70703125 26.9296875 C-28.67058116 14.29814413 -19.8963784 6.25087412 -7.0703125 0.59375 C-4.64245827 -0.10254027 -2.51312756 -0.1050785 0 0 Z " fill="#FBFCFB" transform="translate(357,135)"/>
<path d="M0 0 C10.19455159 3.47849545 18.53312623 12.61746078 23.2109375 22.06640625 C28.61478317 34.7215662 29.35294902 46.74337019 24.64453125 59.90234375 C21.963472 65.85768514 19.04794309 72.02297115 13.64453125 75.90234375 C6.25788162 75.33031364 0.14006342 69.61670842 -4.671875 64.3828125 C-14.38595785 51.79321367 -16.78473829 39.39882599 -15.35546875 23.90234375 C-14.07845864 15.07628272 -9.2085622 8.05050472 -3.94921875 1.0234375 C-2.35546875 -0.09765625 -2.35546875 -0.09765625 0 0 Z " fill="#FBFCFB" transform="translate(134.35546875,147.09765625)"/>
<path d="M0 0 C0.98163422 1.93625098 1.96022454 3.87404539 2.9375 5.8125 C3.48277344 6.89144531 4.02804687 7.97039062 4.58984375 9.08203125 C7.30021239 14.69046719 7.25206553 19.44250219 7.3125 25.5625 C7.34150391 26.51447266 7.37050781 27.46644531 7.40039062 28.44726562 C7.46235579 35.44932925 6.05741815 40.72304412 3 47 C2.54238281 47.95132813 2.08476562 48.90265625 1.61328125 49.8828125 C-4.0812476 59.69860697 -11.64079695 65.57504241 -22 70 C-23.26070313 70.59167969 -23.26070313 70.59167969 -24.546875 71.1953125 C-27.30452974 72.09989351 -28.40155839 72.28277497 -31 71 C-32.4140625 68.9609375 -32.4140625 68.9609375 -33.625 66.375 C-34.02976562 65.53710938 -34.43453125 64.69921875 -34.8515625 63.8359375 C-39.14450206 53.23500511 -40.10142631 39.92927892 -36.4375 28.9375 C-30.67441707 15.9201868 -21.46118152 7.3566322 -8.89453125 1.03125 C-5.74647514 -0.09032465 -3.31637469 -0.19652591 0 0 Z " fill="#FBFCFB" transform="translate(294,332)"/>
<path d="M0 0 C12.9839984 -0.8422053 23.65962071 2.05928679 34 10 C34.86625 10.5775 35.7325 11.155 36.625 11.75 C44.49083418 19.20184291 50.69143182 29.90293175 51.16796875 40.86328125 C51.1798754 42.34632066 51.18621816 43.82941335 51.1875 45.3125 C51.19974609 46.04662109 51.21199219 46.78074219 51.22460938 47.53710938 C51.23755942 52.40201004 50.54283687 56.38368574 49 61 C33.82891531 61.59022952 23.05751891 59.10334632 11.515625 48.77734375 C2.06720166 39.02771228 -2.11874392 27.99743818 -2.1875 14.5625 C-2.20167969 13.30566406 -2.21585938 12.04882812 -2.23046875 10.75390625 C-1.98767561 6.79925868 -1.22245831 3.74468455 0 0 Z " fill="#FBFCFC" transform="translate(141,275)"/>
<path d="M0 0 C0.99 0.66 1.98 1.32 3 2 C2.01090416 13.62187617 -4.16823579 22.80274106 -12.37109375 30.81640625 C-21.25198385 38.19295538 -31.93550398 41.39986918 -43.3125 41.375 C-44.05016602 41.37411377 -44.78783203 41.37322754 -45.54785156 41.37231445 C-54.09336294 41.1886102 -60.78844261 38.46247079 -68 34 C-67.61848996 24.08073884 -62.80681414 14.97883283 -56.0390625 7.80859375 C-52.04449883 4.26552291 -47.65974944 1.57787259 -43 -1 C-41.89785156 -1.65548828 -41.89785156 -1.65548828 -40.7734375 -2.32421875 C-28.44891831 -8.53002788 -11.78394945 -6.24189939 0 0 Z " fill="#FCFCFC" transform="translate(375,353)"/>
<path d="M0 0 C0.9715224 13.1911153 -2.45287802 24.7628789 -11 35 C-19.78002948 44.30345432 -31.02677901 50.12802439 -43.859375 51.25 C-49.57424857 51.37629555 -54.53628966 50.64942199 -60 49 C-61.09132553 39.43903941 -61.94590343 31.64818375 -57 23 C-56.51273438 22.08605469 -56.02546875 21.17210937 -55.5234375 20.23046875 C-49.0060985 8.94095499 -38.58957623 1.42172222 -26.125 -2.3125 C-17.65375971 -4.11306727 -7.85151704 -3.92575852 0 0 Z " fill="#FBFCFB" transform="translate(81,399)"/>
<path d="M0 0 C0.75062862 14.28279465 -2.28480393 26.21899334 -11.89453125 37.15625 C-21.5234367 46.44573207 -33.12804605 51.11938611 -46.4375 51.1875 C-47.69433594 51.20167969 -48.95117188 51.21585938 -50.24609375 51.23046875 C-54.20074132 50.98767561 -57.25531545 50.22245831 -61 49 C-61.63936193 33.89211433 -58.12230601 22.03999414 -47.8125 10.65625 C-34.65999208 -1.36242103 -16.98084105 -5.66028035 0 0 Z " fill="#FCFCFC" transform="translate(487,146)"/>
<path d="M0 0 C4.14689682 1.69645779 7.33180245 4.26234125 10.75 7.125 C11.35199219 7.60710937 11.95398438 8.08921875 12.57421875 8.5859375 C18.75922273 14.06209832 25.21407603 24.78557378 25.92700195 33.21875 C26.32703597 48.92685849 25.39460493 60.7099826 14.75 73.125 C13.11514452 74.49715273 11.45503999 75.84110196 9.75 77.125 C-2.78243022 69.96032022 -10.62133783 61.62902207 -15.36328125 47.90234375 C-18.4936224 34.56736623 -16.92928993 20.88732603 -9.8125 9.25 C-3.92733804 0.21818545 -3.92733804 0.21818545 0 0 Z " fill="#FBFCFC" transform="translate(218.25,114.875)"/>
<path d="M0 0 C7.17515725 6.14784167 13.20743719 16.59632482 14.22094727 26.06396484 C15.02954159 41.93026787 12.41944138 54.44279628 1.6875 66.625 C-2.06401085 69.94028866 -6.00751426 72.98171558 -10 76 C-17.47658185 72.76958379 -21.8955791 65.9114617 -24.9375 58.625 C-29.22893998 47.36542527 -30.10442953 34.32961999 -25.9375 22.8125 C-21.62785833 13.35792095 -14.83833968 5.3125875 -6.01171875 -0.25390625 C-3.48775115 -1.18997967 -2.46417445 -1.05327536 0 0 Z " fill="#FCFCFC" transform="translate(284,141)"/>
<path d="M0 0 C0.9590625 0.804375 0.9590625 0.804375 1.9375 1.625 C0.96793356 8.98307959 -3.9913275 14.8676324 -9.39453125 19.71875 C-11.87374866 21.54512018 -14.38345062 23.10818528 -17.0625 24.625 C-17.8978125 25.13160156 -18.733125 25.63820313 -19.59375 26.16015625 C-30.01182263 31.53384601 -43.62820841 31.42632733 -54.8671875 28.703125 C-63.16570353 25.4512892 -69.64792942 20.65444251 -75.0625 13.625 C-67.64681126 0.80976289 -58.25687562 -7.97237584 -43.640625 -12.05078125 C-26.42557142 -14.21570465 -13.69478448 -10.6204451 0 0 Z " fill="#FCFCFC" transform="translate(450.0625,313.375)"/>
<path d="M0 0 C9.44294368 10.05673502 12.71994682 22.10778485 12.37890625 35.6328125 C11.59091342 48.56267329 3.99957386 59.6357638 -5.11328125 68.33203125 C-7.30738308 70.27174446 -9.28394272 71.86830947 -12 73 C-16.83154527 72.4919406 -19.03799487 69.17693524 -22.03515625 65.671875 C-29.85390319 55.0396227 -32.04983657 42.93923568 -31 30 C-28.61331612 18.58188734 -22.92700999 7.52191945 -13 1 C-4.64128159 -3.10362123 -4.64128159 -3.10362123 0 0 Z " fill="#FBFCFB" transform="translate(297,35)"/>
<path d="M0 0 C10.94209052 0.7136146 19.89739495 6.91413529 27 15 C35.71782287 27.27766054 38.8275697 39.40760535 36.46484375 54.39453125 C35.12441185 60.217719 33.28724931 65.01244932 30 70 C21.68289211 71.13415108 14.78554027 66.77462895 8.25 61.984375 C-0.63576066 54.45315103 -7.87767008 44.44571385 -9.28393555 32.61035156 C-9.3993892 30.19099439 -9.41015286 27.79664162 -9.375 25.375 C-9.38660156 24.56804687 -9.39820312 23.76109375 -9.41015625 22.9296875 C-9.37349569 15.40205229 -7.11255659 10.27369286 -2.8125 4.0625 C-2.28269531 3.29035156 -1.75289063 2.51820313 -1.20703125 1.72265625 C-0.80871094 1.15417969 -0.41039063 0.58570313 0 0 Z " fill="#FCFCFC" transform="translate(80,192)"/>
<path d="M0 0 C12.52695699 -0.98250643 24.62535195 4.43790546 34.1875 12.25 C38.28033748 15.96554184 41.17387907 20.27909344 44 25 C40.56535941 32.80910821 33.22632162 36.85233387 25.63671875 40 C19.19701293 42.44231806 13.8066415 43.17723201 6.9375 43.25 C6.26436768 43.25942627 5.59123535 43.26885254 4.89770508 43.27856445 C0.21180216 43.24817746 -3.59586996 42.44322597 -8 41 C-8.4939553 32.69343763 -7.00953451 25.18905466 -5.125 17.125 C-4.85558594 15.91585938 -4.58617187 14.70671875 -4.30859375 13.4609375 C-2.10416581 3.78296117 -2.10416581 3.78296117 0 0 Z " fill="#FBFCFB" transform="translate(32,300)"/>
<path d="M0 0 C3 1 3 1 4.3515625 3.3984375 C4.98191406 4.87183594 4.98191406 4.87183594 5.625 6.375 C6.26308594 7.84066406 6.26308594 7.84066406 6.9140625 9.3359375 C11.1049369 19.61714736 10.58835894 33.32026675 6.625 43.625 C5.26388761 46.65765393 3.84679736 49.22980396 2 52 C-11.37605709 49.62682858 -21.726264 43.38040931 -29.625 32.1875 C-31.1015625 29.98046875 -31.1015625 29.98046875 -32 28 C-30.43204389 23.29613166 -26.76359485 21.10813732 -23 18 C-22.09314453 17.25073242 -22.09314453 17.25073242 -21.16796875 16.48632812 C-19.0950743 14.77769959 -17.01743705 13.07504752 -14.9375 11.375 C-14.26517334 10.82473145 -13.59284668 10.27446289 -12.90014648 9.70751953 C-10.94612984 8.12147792 -8.97864486 6.55518393 -7 5 C-6.35691895 4.48985352 -5.71383789 3.97970703 -5.05126953 3.45410156 C-3.42792674 2.21901429 -1.71888432 1.09823453 0 0 Z " fill="#FAFCFB" transform="translate(173,93)"/>
<path d="M0 0 C4.17406091 11.14191557 2.42973286 23.27045456 -2.32421875 33.984375 C-5.16192316 39.49592686 -8.04739106 44.2065123 -13 48 C-20.33495494 47.48881189 -25.97632258 41.31555522 -30.75 36.1875 C-34.28373364 31.96022985 -37.21536336 27.23307514 -39 22 C-37.74782951 18.24348853 -36.68699856 17.96268459 -33.29296875 16.07421875 C-32.31875977 15.52725342 -31.34455078 14.98028809 -30.34082031 14.41674805 C-29.30022461 13.84609619 -28.25962891 13.27544434 -27.1875 12.6875 C-26.14045898 12.10589111 -25.09341797 11.52428223 -24.01464844 10.92504883 C-4.24916738 0 -4.24916738 0 0 0 Z " fill="#FBFCFB" transform="translate(237,56)"/>
<path d="M0 0 C0.33 0 0.66 0 1 0 C1.03963867 1.1559668 1.07927734 2.31193359 1.12011719 3.50292969 C2.34297631 38.04734724 5.00811452 70.17826781 16.88134766 102.89672852 C25.34859353 126.51455734 27.79495547 152.2974169 23 177 C21.68 177 20.36 177 19 177 C18.98018066 176.2157666 18.96036133 175.4315332 18.93994141 174.62353516 C18.84276407 170.95710417 18.73389409 167.29110102 18.625 163.625 C18.57859375 161.77648437 18.57859375 161.77648437 18.53125 159.890625 C18.05147127 144.37777924 16.19405861 129.45309673 12.65829468 114.34255981 C12.10869005 111.9927681 11.57198269 109.64032801 11.03833008 107.28686523 C10.3392902 104.20723749 9.63657444 101.12850516 8.92919922 98.05078125 C6.34218337 86.7866256 3.98006201 75.56567742 2.3125 64.125 C2.19285889 63.30459229 2.07321777 62.48418457 1.94995117 61.63891602 C0.02227467 47.64753525 -0.12728998 33.78115436 -0.0625 19.6875 C-0.05747279 17.77148555 -0.05291206 15.85546982 -0.04882812 13.93945312 C-0.03792424 9.29293647 -0.02072757 4.64648279 0 0 Z " fill="#377E42" transform="translate(463,540)"/>
<path d="M0 0 C2.68777802 -0.0544207 5.37443212 -0.09387266 8.0625 -0.125 C8.81466797 -0.14175781 9.56683594 -0.15851563 10.34179688 -0.17578125 C15.29327709 -0.21865121 19.30414451 0.41600625 24 2 C24.82698774 14.74939427 22.15044743 25.9734905 14 36 C12.39708617 37.77869028 10.7720473 39.38430982 9 41 C6.38242597 33.81542745 4.72021199 26.58668714 3.21020508 19.09570312 C2.8088014 17.10667274 2.39819049 15.11970091 1.98632812 13.1328125 C0 3.41523731 0 3.41523731 0 0 Z " fill="#F9FAF9" transform="translate(23,460)"/>
<path d="M0 0 C3.37083158 3.0918142 5.69953552 6.50208027 8.0625 10.375 C15.64774793 22.33569584 24.21400273 32.3268321 34.32907104 42.18093872 C49.39670505 56.87977948 66.85831813 75.98351041 69 98 C68.01 98 67.02 98 66 98 C65.53851563 97.01902344 65.07703125 96.03804687 64.6015625 95.02734375 C55.89166622 76.8629992 44.23509128 61.28267811 31.0625 46.125 C21.94138326 35.58929972 13.79672959 24.50531679 6.3125 12.75 C5.53616211 11.53437378 5.53616211 11.53437378 4.74414062 10.29418945 C4.26783203 9.53195068 3.79152344 8.76971191 3.30078125 7.984375 C2.66910034 6.97455566 2.66910034 6.97455566 2.0246582 5.94433594 C0.98324241 3.96820171 0.4438299 2.1817327 0 0 Z " fill="#357D3F" transform="translate(363,640)"/>
<path d="M0 0 C0.33 0 0.66 0 1 0 C1.04487549 1.19262451 1.08975098 2.38524902 1.13598633 3.61401367 C1.30958111 8.14915941 1.49772334 12.68361585 1.68969727 17.21801758 C1.77000455 19.15992106 1.84665331 21.10198017 1.91918945 23.04418945 C2.35374757 34.60343536 3.17698958 45.92116416 5.08125305 57.34184265 C5.21388046 58.15885147 5.34650787 58.97586029 5.4831543 59.81762695 C5.60651657 60.53126907 5.72987885 61.24491119 5.85697937 61.98017883 C6.01429337 64.20185935 5.64874868 65.88106427 5 68 C4.34 68 3.68 68 3 68 C2.68164139 65.93839618 2.37073385 63.87564187 2.0625 61.8125 C1.80146484 60.08966797 1.80146484 60.08966797 1.53515625 58.33203125 C-0.14752979 45.46033448 -0.12204732 32.64072721 -0.0625 19.6875 C-0.05747279 17.77148555 -0.05291206 15.85546982 -0.04882812 13.93945312 C-0.03792424 9.29293647 -0.02072757 4.64648279 0 0 Z " fill="#679D6F" transform="translate(463,540)"/>
<path d="M0 0 C0.33 0 0.66 0 1 0 C0.67 12.54 0.34 25.08 0 38 C-0.33 38 -0.66 38 -1 38 C-1.02505615 37.37955811 -1.0501123 36.75911621 -1.07592773 36.11987305 C-1.19196721 33.30887603 -1.31465759 30.49820759 -1.4375 27.6875 C-1.47681641 26.71103516 -1.51613281 25.73457031 -1.55664062 24.72851562 C-1.59853516 23.79072266 -1.64042969 22.85292969 -1.68359375 21.88671875 C-1.72025146 21.02264404 -1.75690918 20.15856934 -1.79467773 19.26831055 C-1.92747354 16.8352174 -1.92747354 16.8352174 -3 14 C-2.5987822 11.58988749 -2.10870298 9.19394501 -1.5625 6.8125 C-1.27503906 5.54019531 -0.98757812 4.26789063 -0.69140625 2.95703125 C-0.46324219 1.98121094 -0.23507813 1.00539062 0 0 Z " fill="#CEDFD1" transform="translate(226,209)"/>
<path d="M0 0 C3.54058928 3.22676432 6.00205036 6.89218566 8.5 10.9375 C9.25762752 12.15668558 10.01800828 13.37416492 10.78125 14.58984375 C11.14605469 15.17233887 11.51085937 15.75483398 11.88671875 16.35498047 C13.1159659 18.2429476 13.1159659 18.2429476 15.34375 20.69140625 C15.8903125 21.45324219 16.436875 22.21507812 17 23 C16.60351562 25.14428711 16.60351562 25.14428711 16 27 C14.07940106 24.14846163 12.16425445 21.29330053 10.25 18.4375 C9.71117187 17.63763672 9.17234375 16.83777344 8.6171875 16.01367188 C0 3.14043445 0 3.14043445 0 0 Z " fill="#508E59" transform="translate(363,640)"/>
<path d="M0 0 C2.76223278 2.76223278 2.57856291 5.20706617 3 9 C-2.75 13 -2.75 13 -5 13 C-4.54554036 11.58208592 -4.08625056 10.16571954 -3.625 8.75 C-3.24214844 7.56664062 -3.24214844 7.56664062 -2.8515625 6.359375 C-2.04826333 4.13372042 -1.10288338 2.09068328 0 0 Z " fill="#E5EEE6" transform="translate(53,240)"/>
<path d="M0 0 C-3.96 2.64 -7.92 5.28 -12 8 C-12.66 7.34 -13.32 6.68 -14 6 C-11.72698066 3.45655714 -9.54913519 2.12383563 -6.4375 0.75 C-5.65246094 0.39421875 -4.86742187 0.0384375 -4.05859375 -0.328125 C-2 -1 -2 -1 0 0 Z " fill="#D9E6DB" transform="translate(449,368)"/>
<path d="M0 0 C0.99 0.495 0.99 0.495 2 1 C2.4140625 3.06640625 2.4140625 3.06640625 2.625 5.5625 C2.69976562 6.38878906 2.77453125 7.21507812 2.8515625 8.06640625 C2.92503906 9.02353516 2.92503906 9.02353516 3 10 C2.01 10 1.02 10 0 10 C0 6.7 0 3.4 0 0 Z " fill="#4C8C55" transform="translate(466,598)"/>
<path d="M0 0 C0.99 0.33 1.98 0.66 3 1 C2.5020163 4.73487777 2.12508244 6.81237635 0 10 C0 6.7 0 3.4 0 0 Z " fill="#E8F0E9" transform="translate(19,386)"/>
</svg>
